HIERARCHY
ROOT Hips
{
	OFFSET -0.001795 -0.223333 0.028219
	CHANNELS 6 Xposition Yposition Zposition Zrotation Yrotation Xrotation 
	JOINT LeftUpLeg
	{
		OFFSET 0.069520 -0.091406 -0.006815
		CHANNELS 3 Zrotation Yrotation Xrotation
		JOINT LeftLeg
		{
			OFFSET 0.034277 -0.375199 -0.004496
			CHANNELS 3 Zrotation Yrotation Xrotation
			JOINT LeftFoot
			{
				OFFSET -0.013596 -0.397961 -0.043693
				CHANNELS 3 Zrotation Yrotation Xrotation
				JOINT LeftToe
				{
					OFFSET 0.026358 -0.055791 0.119288
					CHANNELS 3 Zrotation Yrotation Xrotation
					End Site
					{
						OFFSET 0.000000 0.000000 0.000000
					}
				}
			}
		}
	}
	JOINT RightUpLeg
	{
		OFFSET -0.067670 -0.090522 -0.004320
		CHANNELS 3 Zrotation Yrotation Xrotation
		JOINT RightLeg
		{
			OFFSET -0.038290 -0.382569 -0.008850
			CHANNELS 3 Zrotation Yrotation Xrotation
			JOINT RightFoot
			{
				OFFSET 0.015774 -0.398415 -0.042312
				CHANNELS 3 Zrotation Yrotation Xrotation
				JOINT RightToe
				{
					OFFSET -0.025372 -0.048144 0.123348
					CHANNELS 3 Zrotation Yrotation Xrotation
					End Site
					{
						OFFSET 0.000000 0.000000 0.000000
					}
				}
			}
		}
	}
	JOINT Spine
	{
		OFFSET -0.002533 0.108963 -0.026696
		CHANNELS 3 Zrotation Yrotation Xrotation
		JOINT Spine1
		{
			OFFSET 0.005487 0.135180 0.001092
			CHANNELS 3 Zrotation Yrotation Xrotation
			JOINT Spine2
			{
				OFFSET 0.001457 0.052922 0.025425
				CHANNELS 3 Zrotation Yrotation Xrotation
				JOINT Neck
				{
					OFFSET -0.002778 0.213870 -0.042857
					CHANNELS 3 Zrotation Yrotation Xrotation
					JOINT Head
					{
						OFFSET 0.005152 0.064970 0.051349
						CHANNELS 3 Zrotation Yrotation Xrotation
						End Site
						{
							OFFSET 0.000000 0.000000 0.000000
						}
					}
				}
				JOINT LeftShoulder
				{
					OFFSET 0.078845 0.121749 -0.034090
					CHANNELS 3 Zrotation Yrotation Xrotation
					JOINT LeftArm
					{
						OFFSET 0.090977 0.030469 -0.008868
						CHANNELS 3 Zrotation Yrotation Xrotation
						JOINT LeftForeArm
						{
							OFFSET 0.259612 -0.012772 -0.027456
							CHANNELS 3 Zrotation Yrotation Xrotation
							JOINT LeftHand
							{
								OFFSET 0.249234 0.008986 -0.001171
								CHANNELS 3 Zrotation Yrotation Xrotation
								End Site
								{
									OFFSET 0.000000 0.000000 0.000000
								}
							}
						}
					}
				}
				JOINT RightShoulder
				{
					OFFSET -0.081759 0.118833 -0.038615
					CHANNELS 3 Zrotation Yrotation Xrotation
					JOINT RightArm
					{
						OFFSET -0.096012 0.032551 -0.009143
						CHANNELS 3 Zrotation Yrotation Xrotation
						JOINT RightForeArm
						{
							OFFSET -0.253742 -0.013329 -0.021401
							CHANNELS 3 Zrotation Yrotation Xrotation
							JOINT RightHand
							{
								OFFSET -0.255298 0.007772 -0.005559
								CHANNELS 3 Zrotation Yrotation Xrotation
								End Site
								{
									OFFSET 0.000000 0.000000 0.000000
								}
							}
						}
					}
				}
			}
		}
	}
}
MOTION
Frames: 10
Frame Time: 0.050000
0.000000 0.893770 0.000000 -7.304439 -11.142296 11.940888 23.708838 5.171569 -31.012777 -13.664702 5.747388 28.921545 10.932723 21.603679 5.415660 0.000000 0.000000 0.000000 -14.605714 1.040418 -21.940116 8.601525 -0.901876 21.468655 -5.220701 -15.620478 9.626790 0.000000 0.000000 0.000000 -0.903836 -0.039102 30.383649 -5.934784 1.752582 -23.862368 -3.018155 5.798813 24.494118 13.016361 -3.675535 -36.319515 0.000000 0.000000 0.000000 -16.254538 -30.318687 15.149851 -39.762376 -33.594204 4.404917 2.851502 -31.811613 0.593487 0.000000 0.000000 0.000000 27.963700 16.281268 8.873290 48.505762 30.439496 5.453838 -0.418913 39.159737 1.864621 0.000000 0.000000 0.000000 
0.006544 0.892371 -0.001488 -8.214337 -11.414834 12.926555 24.750327 6.042166 -33.143599 -14.316334 6.544278 31.641995 10.296868 20.293486 7.431764 0.000000 0.000000 0.000000 -14.688509 1.106660 -22.746150 9.358561 -1.068113 20.004617 -4.573989 -14.783062 11.091564 0.000000 0.000000 0.000000 -1.504751 0.196659 30.616064 -5.511813 1.640457 -24.136790 -3.578170 5.168547 25.024825 15.237315 -4.264944 -38.758658 0.000000 0.000000 0.000000 -17.628337 -29.854393 15.565540 -37.305290 -32.589609 3.493178 3.603816 -33.858846 0.453523 0.000000 0.000000 0.000000 28.402879 15.538538 8.114364 48.589148 30.276550 5.392777 -0.050626 40.920913 2.102227 0.000000 0.000000 0.000000 
0.013842 0.888661 -0.002706 -7.839374 -10.173483 13.100959 24.071047 5.930375 -35.067866 -14.232081 6.627281 33.433830 10.997172 21.629304 6.674492 0.000000 0.000000 0.000000 -15.470304 0.942340 -23.103051 10.112499 -1.345422 20.117457 -4.836586 -14.927566 9.972806 0.000000 0.000000 0.000000 -1.015477 -0.093739 30.267834 -5.091098 1.566854 -22.541613 -4.277274 5.369552 23.821801 15.825044 -5.014542 -35.680534 0.000000 0.000000 0.000000 -17.523550 -31.376414 16.094141 -35.123171 -33.283302 3.438377 2.447102 -34.039906 0.727825 0.000000 0.000000 0.000000 28.632760 16.214029 8.992688 46.448131 31.386169 5.407671 -1.009015 39.378081 1.694649 0.000000 0.000000 0.000000 
0.021737 0.887783 -0.003703 -7.958522 -10.660674 13.464641 24.167700 6.420550 -36.726304 -14.566968 7.199130 35.367637 10.642232 20.910854 7.702281 0.000000 0.000000 0.000000 -16.541259 0.887032 -23.929205 10.230670 -1.343424 19.498360 -5.263177 -16.163714 12.112693 0.000000 0.000000 0.000000 -1.043975 -0.021443 30.630254 -6.251827 1.828740 -22.975187 -4.027028 4.441951 23.917422 16.174613 -5.282373 -35.802180 0.000000 0.000000 0.000000 -18.289940 -31.316691 16.613208 -33.982164 -33.089514 3.141247 3.661195 -34.469582 0.381343 0.000000 0.000000 0.000000 28.830215 15.977172 8.338866 44.950260 30.494770 4.878211 0.671263 41.328507 2.288480 0.000000 0.000000 0.000000 
0.030336 0.888118 -0.003969 -7.799425 -10.570579 13.382921 23.669424 6.358919 -37.378898 -14.447114 7.296615 36.331789 10.928609 21.328978 8.475786 0.000000 0.000000 0.000000 -16.945065 0.829997 -24.305382 10.274988 -1.375885 20.163030 -5.240601 -16.327479 13.411152 0.000000 0.000000 0.000000 -1.642083 0.178677 30.885248 -5.452969 1.640973 -22.778320 -4.242769 4.686543 23.882663 17.121589 -5.866951 -35.032381 0.000000 0.000000 0.000000 -18.477273 -31.042141 16.411223 -33.258234 -33.228100 3.036114 4.815362 -35.847480 0.036661 0.000000 0.000000 0.000000 29.136239 15.932412 8.483964 43.315799 30.558544 4.540566 0.772986 41.409560 2.326669 0.000000 0.000000 0.000000 
0.039705 0.889914 -0.003519 -7.800936 -10.176352 13.647001 22.932717 5.998677 -37.574223 -14.512731 7.306603 36.486165 10.830026 21.246313 8.073429 0.000000 0.000000 0.000000 -17.242114 0.775110 -23.783376 10.371971 -1.408018 18.977827 -5.178661 -16.289457 14.283465 0.000000 0.000000 0.000000 -1.525217 0.120059 31.309745 -5.615285 1.669096 -23.753068 -3.736246 4.064207 24.381844 18.337912 -6.641172 -34.662949 0.000000 0.000000 0.000000 -20.197166 -31.124653 17.124879 -31.151917 -32.219847 2.321901 4.973747 -36.625066 -0.026080 0.000000 0.000000 0.000000 29.447981 15.953472 8.338122 41.874631 29.291353 3.843416 1.747909 42.488602 2.694931 0.000000 0.000000 0.000000 
0.049934 0.891761 -0.002031 -7.806875 -9.894890 13.636022 22.477663 5.905983 -38.303462 -14.394531 7.332140 37.258496 11.105397 21.642883 9.008457 0.000000 0.000000 0.000000 -17.381867 0.736085 -23.619391 10.223156 -1.371705 18.044887 -5.445010 -16.882790 15.490873 0.000000 0.000000 0.000000 -1.289557 0.006113 31.074735 -5.455882 1.636363 -23.617089 -3.566106 4.174696 24.205743 17.968007 -6.634642 -33.923671 0.000000 0.000000 0.000000 -20.467861 -30.214200 16.598974 -31.538862 -31.995645 2.314687 4.943407 -37.796633 0.011599 0.000000 0.000000 0.000000 30.210814 15.502756 8.186335 40.726959 28.700455 3.430601 1.874874 42.072144 2.700398 0.000000 0.000000 0.000000 
0.061258 0.893372 0.000110 -7.890633 -9.727584 13.475515 21.840685 5.744354 -38.940154 -14.513011 7.519856 38.171305 11.226819 21.881366 8.739365 0.000000 0.000000 0.000000 -17.434961 0.721877 -22.752990 9.473184 -1.179596 16.300268 -5.276221 -16.766850 16.934891 0.000000 0.000000 0.000000 -1.401487 0.017204 30.832470 -5.264620 1.595436 -23.584458 -2.767203 4.388207 24.168930 18.285737 -7.047282 -32.900727 0.000000 0.000000 0.000000 -20.530016 -30.014225 16.418439 -31.814320 -31.162011 2.145074 5.267561 -39.010700 -0.093811 0.000000 0.000000 0.000000 30.653930 15.211917 8.127043 39.953630 27.894564 3.026591 1.605066 41.498543 2.541880 0.000000 0.000000 0.000000 
0.073711 0.894616 0.002795 -8.107075 -9.746939 13.339569 21.616985 5.664730 -38.916906 -14.937049 7.847380 38.693517 11.676502 22.615782 8.659527 0.000000 0.000000 0.000000 -17.550332 0.718571 -22.180337 8.686128 -0.990724 14.800737 -4.957588 -16.514903 18.828088 0.000000 0.000000 0.000000 -1.461482 0.033738 30.730051 -4.921726 1.512740 -23.910981 -2.236100 4.952906 24.314390 18.296531 -7.160853 -32.269527 0.000000 0.000000 0.000000 -19.834754 -29.357952 15.693085 -33.153758 -30.891852 2.284226 5.412598 -39.289637 -0.130866 0.000000 0.000000 0.000000 31.042361 14.767924 8.079255 39.368594 27.368112 2.702546 1.064300 40.249818 2.273557 0.000000 0.000000 0.000000 
0.086807 0.894907 0.005557 -8.189997 -9.423556 13.079479 20.716588 5.305492 -39.245236 -14.788265 7.879361 39.622393 11.894638 23.079497 7.883802 0.000000 0.000000 0.000000 -17.955823 0.656108 -21.561333 7.900155 -0.837741 13.449371 -4.540600 -16.040493 20.451807 0.000000 0.000000 0.000000 -1.382135 -0.040900 30.153446 -4.872953 1.509843 -23.712432 -1.589470 5.255083 24.563001 18.401960 -7.255510 -32.017705 0.000000 0.000000 0.000000 -19.121323 -28.885848 15.106816 -34.216619 -30.687137 2.393045 5.253034 -39.766657 -0.072740 0.000000 0.000000 0.000000 30.266542 14.376375 7.914763 39.955757 27.435381 2.751906 0.149675 39.438504 1.930466 0.000000 0.000000 0.000000 
